<?xml version="1.0" encoding="utf-8"?>
<!-- Generator: Adobe Illustrator 19.2.0, SVG Export Plug-In . SVG Version: 6.00 Build 0)  -->
<svg version="1.1" id="Layer_1" xmlns="http://www.w3.org/2000/svg" xmlns:xlink="http://www.w3.org/1999/xlink" x="0px" y="0px"
	 viewBox="0 0 500 500" style="enable-background:new 0 0 500 500;" xml:space="preserve">
<style type="text/css">
	.st0{fill:#00d56f;}
</style>
<g>
	<g>
		<path class="st0" d="M56.5,247.3c0,0-3.4,10.8-1.5,29.3c0.8,8.2,7,53.3,41.5,82.8s73.3,27.3,91,27.7c17.7,0.3,80-1.4,130-38.9
			s67.8-85.5,67.8-85.5s50.1,3.4,60.4-38.9c0,0-13.7-15.5-52.7-10.3c0,0-1.7-25.7-33.7-45.2c0,0-29.3,33.7-7.8,72.7
			c0,0-4.5,4.7-29.5,6.3H56.5z"/>
		<rect x="84.6" y="201.6" class="st0" width="41.6" height="36.5"/>
		<rect x="132.3" y="201.6" class="st0" width="41.6" height="36.5"/>
		<rect x="179.9" y="201.6" class="st0" width="41.6" height="36.5"/>
		<rect x="227.5" y="201.6" class="st0" width="41.6" height="36.5"/>
		<rect x="275.1" y="201.6" class="st0" width="41.6" height="36.5"/>
		<rect x="228.2" y="157.3" class="st0" width="40.9" height="37.3"/>
		<rect x="228.2" y="113.3" class="st0" width="40.9" height="37.3"/>
		<rect x="180.6" y="157.3" class="st0" width="40.9" height="37.3"/>
		<rect x="133" y="157.3" class="st0" width="40.9" height="37.3"/>
	</g>
</g>
</svg>
