<?xml version="1.0" encoding="utf-8"?>
<!-- Generator: Adobe Illustrator 19.2.0, SVG Export Plug-In . SVG Version: 6.00 Build 0)  -->
<svg version="1.1" id="Layer_1" xmlns="http://www.w3.org/2000/svg" xmlns:xlink="http://www.w3.org/1999/xlink" x="0px" y="0px"
	 viewBox="0 0 500 500" style="enable-background:new 0 0 500 500;" xml:space="preserve">
<style type="text/css">
	.st0{fill:#00d56f;}
</style>
<path class="st0" d="M247.6,44c0,0,1.3,8.8-8,18.7c-9.3,9.8-25.5,20.2-43.7,49.8s-26,51.3-29.8,67.7c-3.8,16.3-9.8,45.2-8.5,68.8
	c1.3,23.7,2,43.7,23.5,87.3c0,0,22.3,42,60.8,68.8c0,0,6,16.7,5.7,47.2l11.1,3.7c0,0-4-43,6.2-54.2c0,0,40.5-23,66.2-91.3
	c25.7-68.3,1.6-123-7-150c0,0-9-32-51.7-77C272.4,83.5,256.3,70.3,247.6,44z"/>
</svg>
